<?xml version="1.0" standalone="no"?>
<!DOCTYPE svg PUBLIC "-//W3C//DTD SVG 20010904//EN"
 "http://www.w3.org/TR/2001/REC-SVG-20010904/DTD/svg10.dtd">
<svg version="1.0" xmlns="http://www.w3.org/2000/svg"
 width="426.000000pt" height="426.000000pt" viewBox="0 0 426.000000 426.000000"
 preserveAspectRatio="xMidYMid meet">

<g transform="translate(0.000000,426.000000) scale(0.100000,-0.100000)"
fill="#000000" stroke="none">
<path d="M2305 3848 c-2 -13 -11 -77 -20 -143 -8 -66 -17 -135 -20 -152 -5
-25 -2 -33 9 -33 17 0 20 15 41 180 9 69 18 135 21 148 3 15 0 22 -11 22 -8 0
-17 -10 -20 -22z"/>
<path d="M1792 3714 c-79 -55 -61 -190 29 -214 33 -9 47 -8 84 9 25 11 45 25
45 31 0 7 -6 8 -19 0 -34 -18 -109 -12 -131 10 -33 33 -25 46 38 59 31 7 65
15 75 17 23 7 22 45 -4 78 -24 31 -81 36 -117 10z m96 -32 c21 -27 13 -39 -32
-51 -62 -15 -86 -14 -86 5 0 61 81 93 118 46z"/>
<path d="M2391 3688 c-27 -24 -50 -47 -50 -51 -1 -5 16 -37 37 -72 23 -42 44
-65 55 -65 12 0 16 4 11 13 -4 6 -23 37 -43 67 l-34 54 54 48 c35 31 48 48 37
48 -10 0 -40 -19 -67 -42z"/>
<path d="M1278 3544 c-3 -21 -8 -46 -12 -55 -6 -13 -2 -16 17 -12 20 4 29 -5
65 -65 24 -40 51 -74 63 -77 25 -8 60 8 78 37 12 19 11 20 -6 13 -57 -25 -68
-20 -112 50 -44 70 -44 86 0 100 10 4 19 13 19 21 0 18 -2 18 -44 -7 l-35 -20
-14 27 -15 28 -4 -40z"/>
<path d="M2833 3573 c-27 -5 -80 -64 -89 -99 -15 -61 27 -117 99 -134 48 -10
56 3 12 19 -49 17 -88 67 -80 100 4 14 8 27 10 29 2 2 35 -13 74 -32 39 -20
73 -36 75 -36 3 0 10 17 16 38 16 51 0 89 -45 107 -19 8 -38 14 -42 14 -4 -1
-18 -4 -30 -6z m77 -43 c21 -21 27 -65 10 -75 -7 -5 -102 36 -119 51 -2 2 4
13 14 24 23 26 69 26 95 0z"/>
<path d="M3225 3236 c-93 -41 -107 -148 -27 -205 48 -34 57 -24 18 19 -35 39
-45 75 -30 114 11 28 31 18 84 -41 l51 -58 25 28 c41 48 29 113 -26 142 -35
18 -56 18 -95 1z m107 -47 c16 -22 17 -29 7 -52 -7 -15 -18 -27 -24 -27 -14 0
-85 75 -85 88 0 33 76 27 102 -9z"/>
<path d="M934 3216 c-24 -17 -60 -93 -49 -104 4 -4 9 -2 11 3 2 6 13 25 24 43
15 24 27 32 49 32 46 0 55 -21 26 -60 -34 -46 -34 -103 0 -126 49 -32 95 3 95
72 0 21 4 23 24 18 18 -4 27 -1 35 14 16 29 14 33 -11 27 -17 -4 -39 7 -85 45
-65 53 -86 59 -119 36z m128 -83 c34 -30 16 -103 -25 -103 -47 0 -60 40 -30
91 20 33 29 35 55 12z"/>
<path d="M3440 2755 c-98 -40 -156 -69 -158 -79 -4 -21 7 -20 63 4 50 22 65
19 65 -10 0 -50 95 -111 152 -97 34 9 78 45 89 74 12 32 -10 83 -45 107 -22
14 -25 20 -16 31 30 36 -7 29 -150 -30z m151 -8 c59 -45 38 -114 -41 -137 -61
-17 -120 26 -120 88 0 11 19 25 53 39 59 25 85 28 108 10z"/>
<path d="M664 2778 c-3 -18 -13 -43 -21 -55 -19 -29 -19 -87 0 -117 18 -28 70
-40 100 -25 16 9 23 8 33 -6 7 -10 15 -23 17 -29 3 -8 10 -8 25 1 18 11 23 8
41 -22 21 -36 28 -39 56 -29 23 9 55 77 55 119 0 51 -25 95 -53 95 -35 0 -54
-20 -74 -75 -14 -37 -24 -50 -38 -50 -17 0 -20 6 -18 45 5 84 -27 130 -88 130
-16 0 -18 5 -13 25 4 15 2 25 -4 25 -6 0 -14 -15 -18 -32z m86 -68 c11 -11 20
-29 20 -39 0 -31 -33 -63 -65 -63 -30 0 -65 32 -65 59 0 21 46 63 70 63 11 0
29 -9 40 -20z m188 -42 c19 -19 14 -82 -9 -112 -43 -54 -91 -16 -70 55 18 60
52 84 79 57z"/>
<path d="M600 2267 c-48 -17 -80 -68 -80 -127 0 -135 177 -178 242 -59 57 104
-48 225 -162 186z"/>
<path d="M3593 2269 c-35 -10 -80 -58 -89 -95 -23 -92 70 -183 163 -160 14 4
41 22 60 41 28 28 33 40 33 82 0 99 -75 159 -167 132z"/>
</g>
</svg>
